HIERARCHY
ROOT Hips
{
	OFFSET 0.00000 0.00000 0.00000
	CHANNELS 6 Xposition Yposition Zposition Zrotation Yrotation Xrotation 
	JOINT LHipJoint
	{
		OFFSET 0 0 0
		CHANNELS 3 Zrotation Yrotation Xrotation
		JOINT LeftHip
		{
			OFFSET 1.52977 -1.71332 0.88991
			CHANNELS 3 Zrotation Yrotation Xrotation
			JOINT LeftKnee
			{
				OFFSET 2.23949 -6.15296 0.00000
				CHANNELS 3 Zrotation Yrotation Xrotation
				JOINT LeftAnkle
				{
					OFFSET 2.68396 -7.37412 0.00000
					CHANNELS 3 Zrotation Yrotation Xrotation
					JOINT LeftToe
					{
						OFFSET 0.20538 -0.56428 2.52710
						CHANNELS 3 Zrotation Yrotation Xrotation
						End Site
						{
							OFFSET 0.00000 -0.00000 1.29919
						}
					}
				}
			}
		}
	}
	JOINT RHipJoint
	{
		OFFSET 0 0 0
		CHANNELS 3 Zrotation Yrotation Xrotation
		JOINT RightHip
		{
			OFFSET -1.45689 -1.71333 0.88991
			CHANNELS 3 Zrotation Yrotation Xrotation
			JOINT RightKnee
			{
				OFFSET -2.36700 -6.50329 0.00000
				CHANNELS 3 Zrotation Yrotation Xrotation
				JOINT RightAnkle
				{
					OFFSET -2.69814 -7.41308 0.00000
					CHANNELS 3 Zrotation Yrotation Xrotation
					JOINT RightToe
					{
						OFFSET -0.18734 -0.51471 2.37479
						CHANNELS 3 Zrotation Yrotation Xrotation
						End Site
						{
							OFFSET -0.00000 -0.00000 1.22113
						}
					}
				}
			}
		}
	}
	JOINT lowerback
	{
		OFFSET 0 0 0
		CHANNELS 3 Zrotation Yrotation Xrotation
		JOINT Chest
		{
			OFFSET 0.04294 2.14638 -0.31163
			CHANNELS 3 Zrotation Yrotation Xrotation
			JOINT Chest2
			{
				OFFSET -0.00400 2.17216 0.01486
				CHANNELS 3 Zrotation Yrotation Xrotation
				JOINT lowerneck
				{
					OFFSET 0 0 0
					CHANNELS 3 Zrotation Yrotation Xrotation
					JOINT Neck
					{
						OFFSET 0.03869 1.76598 0.14916
						CHANNELS 3 Zrotation Yrotation Xrotation
						JOINT Head
						{
							OFFSET -0.00760 1.75513 -0.18948
							CHANNELS 3 Zrotation Yrotation Xrotation
							End Site
							{
								OFFSET -0.00601 1.82444 -0.08310
							}
						}
					}
				}
				JOINT LeftCollar
				{
					OFFSET 0 0 0
					CHANNELS 3 Zrotation Yrotation Xrotation
					JOINT LeftShoulder
					{
						OFFSET 3.73696 0.92058 0.01733
CHANNELS 3 Zrotation Xrotation Yrotation
						JOINT LeftElbow
						{
OFFSET 0 -5.227710 0.000000
CHANNELS 3 Zrotation Xrotation Yrotation
							JOINT LeftWrist
							{
OFFSET 0 -3.452510 0.000000
CHANNELS 3 Zrotation Xrotation Yrotation
								JOINT lhand
								{
									OFFSET 0 0 0
CHANNELS 3 Zrotation Xrotation Yrotation
									JOINT LFingers
									{
OFFSET 0 -0.552120 0.000000
CHANNELS 3 Zrotation Xrotation Yrotation
										End Site
										{
OFFSET 0 -0.445130 0.000000
										}
									}
								}
								JOINT LThumb
								{
OFFSET 0 0.000000 0.000000
CHANNELS 3 Zrotation Xrotation Yrotation
									End Site
									{
OFFSET 0 -0.451930 0.451930
									}
								}
							}
						}
					}
				}
				JOINT RightCollar
				{
					OFFSET 0 0 0
					CHANNELS 3 Zrotation Yrotation Xrotation
					JOINT RightShoulder
					{
						OFFSET -3.63819 0.83094 -0.13694
CHANNELS 3 Zrotation Xrotation Yrotation
						JOINT RightElbow
						{
OFFSET 0 -5.239800 -0.000000
CHANNELS 3 Zrotation Xrotation Yrotation
							JOINT RightWrist
							{
OFFSET 0 -3.480420 -0.000000
CHANNELS 3 Zrotation Xrotation Yrotation
								JOINT rhand
								{
									OFFSET 0 0 0
CHANNELS 3 Zrotation Xrotation Yrotation
									JOINT RFingers
									{
OFFSET 0 -0.618710 0.000000
CHANNELS 3 Zrotation Xrotation Yrotation
										End Site
										{
OFFSET 0 -0.498820 0.000000
										}
									}
								}
								JOINT RThumb
								{
OFFSET 0 0.000000 0.000000
CHANNELS 3 Zrotation Xrotation Yrotation
									End Site
									{
OFFSET 0 -0.506440 0.506440
									}
								}
							}
						}
					}
				}
			}
		}
	}
}
MOTION
Frames: 9
Frame Time: 0.008333333333333333
10.709719 16.460214 -5.460951 -433.452002 86.773708 -406.541548 0.000000 0.000000 0.000000 -18.589009 -10.134860 -55.610043 2.862104 10.468338 30.507116 0.004333 1.783888 -2.919994 0.005707 0.488083 1.341277 0.000000 0.000000 0.000000 19.502612 17.244934 -31.987887 -8.635699 -16.567420 54.821467 -1.125963 -1.978391 -20.849379 -1.330701 7.304868 -20.621916 0.530169 -0.504492 27.460512 -1.004325 -0.155965 5.653670 -1.401769 0.087214 -8.889939 0.523440 -0.102540 6.718412 2.835499 0.848332 -20.220125 0.743566 0.284377 -7.307273 0.000000 0.000000 0.000000 6.575036 -1.588564 -32.257760 17.658389 -27.717586 4.389195 21.748997 -18.014436 -8.688760 0.000000 0.000000 0.000000 -7.125000 0.000000 0.000000 -4.479521 39.285669 -0.632287 0.000000 0.000000 0.000000 -2.025166 0.266033 33.253772 -20.091848 -30.752817 -5.578222 -20.255082 -1.189682 5.619654 0.000000 0.000000 0.000000 7.125000 0.000000 0.000000 5.403957 35.923273 1.210054
10.513000 16.452438 -5.428365 -433.494998 86.708552 -406.845716 0.000000 0.000000 0.000000 -18.525348 -9.960197 -55.773840 2.732858 10.249424 29.788379 -0.010633 2.103925 -1.863851 0.002911 0.346250 0.951287 0.000000 0.000000 0.000000 20.174604 17.148262 -30.478701 -7.911358 -16.053616 52.242513 -1.465787 -1.650834 -23.525330 -1.333404 7.312035 -20.643097 0.526653 -0.510270 27.443326 -1.038053 -0.166465 5.670216 -1.433622 0.082815 -8.863057 0.499796 -0.085284 6.821633 2.908157 0.881143 -20.188612 0.768485 0.293457 -7.316282 0.000000 0.000000 0.000000 6.601102 -1.520985 -32.336589 17.666743 -27.728326 4.393074 21.723031 -18.055331 -8.596911 0.000000 0.000000 0.000000 -7.125000 0.000000 0.000000 -4.490740 39.185552 -0.644935 0.000000 0.000000 0.000000 -1.985781 0.373667 33.367913 -20.148750 -30.821199 -5.607372 -20.338631 -1.407095 5.313607 0.000000 0.000000 0.000000 7.125000 0.000000 0.000000 5.303434 35.603174 1.228928
10.308926 16.444765 -5.395279 -433.736730 86.572741 -407.341626 0.000000 0.000000 0.000000 -18.377604 -9.761118 -55.962719 2.602187 10.021313 29.045712 -0.020232 2.528180 -0.807873 0.001705 0.265429 0.729280 0.000000 0.000000 0.000000 20.876842 17.045181 -29.251759 -7.304293 -15.582778 50.015983 -1.793594 -1.585310 -25.928239 -1.206311 6.967888 -19.620249 0.592906 -0.501702 27.401236 -1.054217 -0.137921 5.691200 -1.499201 0.095260 -8.817751 0.497017 -0.067844 6.898852 2.958899 0.911258 -20.127076 0.782888 0.302030 -7.310783 0.000000 0.000000 0.000000 6.604637 -1.473754 -32.378295 17.694120 -27.763738 4.405868 21.617720 -18.024889 -8.629011 0.000000 0.000000 0.000000 -7.125000 0.000000 0.000000 -4.585659 39.211656 -0.655618 0.000000 0.000000 0.000000 -1.958075 0.466506 33.502528 -20.180855 -30.859606 -5.623775 -20.484658 -1.528897 5.052300 0.000000 0.000000 0.000000 7.125000 0.000000 0.000000 5.156820 35.332955 1.228732
10.097698 16.436498 -5.360814 -433.771047 86.345752 -407.623149 0.000000 0.000000 0.000000 -18.114075 -9.533679 -56.197118 2.477437 9.796711 28.320716 -0.024763 3.072113 0.247175 0.001105 0.215900 0.593177 0.000000 0.000000 0.000000 21.608849 16.979887 -28.300373 -6.763098 -15.129001 47.972485 -2.101245 -1.692144 -28.057555 -1.004484 6.377253 -17.883158 0.687050 -0.471718 27.337453 -1.043608 -0.071881 5.720742 -1.563278 0.124903 -8.750706 0.486512 -0.045966 6.949946 2.998370 0.943021 -20.049258 0.794774 0.313262 -7.295206 0.000000 0.000000 0.000000 6.566752 -1.424650 -32.373754 17.738237 -27.820673 4.426338 21.557816 -18.048496 -8.664014 0.000000 0.000000 0.000000 -7.125000 0.000000 0.000000 -4.641717 39.244430 -0.659967 0.000000 0.000000 0.000000 -1.979812 0.518212 33.737106 -20.195020 -30.876487 -5.631109 -20.585320 -1.575226 4.935100 0.000000 0.000000 0.000000 7.125000 0.000000 0.000000 5.062228 35.213203 1.220865
9.879224 16.427832 -5.322104 -433.917845 86.047388 -408.037758 0.000000 0.000000 0.000000 -17.748515 -9.266056 -56.462405 2.361310 9.581294 27.631108 -0.022175 3.658083 1.362384 0.000706 0.176094 0.483711 0.000000 0.000000 0.000000 22.412898 16.913764 -27.562131 -6.270312 -14.685217 46.057053 -2.384329 -2.014059 -29.972136 -0.762880 5.577094 -15.562348 0.780391 -0.425633 27.294753 -1.004064 0.017497 5.752155 -1.602562 0.165857 -8.691317 0.481758 -0.019703 6.986407 3.027606 0.977868 -19.944455 0.802028 0.326602 -7.268175 0.000000 0.000000 0.000000 6.507147 -1.334954 -32.366158 17.796977 -27.896507 4.453867 21.603156 -18.190155 -8.641167 0.000000 0.000000 0.000000 -7.125000 0.000000 0.000000 -4.599711 39.223449 -0.656342 0.000000 0.000000 0.000000 -2.032498 0.536108 34.045113 -20.186458 -30.866310 -5.626732 -20.552211 -1.584237 4.922835 0.000000 0.000000 0.000000 7.125000 0.000000 0.000000 5.088561 35.198686 1.229096
9.653791 16.416724 -5.278719 -434.370716 85.703586 -408.785244 0.000000 0.000000 0.000000 -17.337956 -8.945951 -56.749313 2.246566 9.361771 26.933661 -0.007742 4.224499 2.640036 0.000404 0.132822 0.364929 0.000000 0.000000 0.000000 23.299915 16.807711 -26.990125 -5.833749 -14.265083 44.310348 -2.640160 -2.429759 -31.661414 -0.502893 4.544842 -12.614877 0.889259 -0.372470 27.280490 -0.948876 0.121750 5.778330 -1.638613 0.213511 -8.651238 0.491276 0.006923 7.006713 3.062402 1.013365 -19.791315 0.808568 0.338891 -7.222666 0.000000 0.000000 0.000000 6.463972 -1.211440 -32.391978 17.850822 -27.965769 4.479089 21.612224 -18.350355 -8.614363 0.000000 0.000000 0.000000 -7.125000 0.000000 0.000000 -4.588705 39.195581 -0.657863 0.000000 0.000000 0.000000 -2.071442 0.542160 34.337213 -20.157602 -30.831820 -5.611909 -20.430176 -1.566574 4.940676 0.000000 0.000000 0.000000 7.125000 0.000000 0.000000 5.191313 35.211875 1.252334
9.421496 16.413218 -5.233294 -434.827885 85.321447 -409.550157 0.000000 0.000000 0.000000 -16.928198 -8.570734 -57.049932 2.128317 9.128309 26.197494 0.021975 4.813861 4.084627 0.000491 0.141571 0.388974 0.000000 0.000000 0.000000 24.211642 16.700844 -26.588835 -5.463039 -13.886921 42.786651 -2.866430 -2.804205 -33.097014 -0.273966 3.364613 -9.295747 1.025505 -0.320211 27.247985 -0.887054 0.232782 5.807823 -1.684932 0.264002 -8.597993 0.489748 0.040645 7.009139 3.114450 1.058484 -19.606567 0.821561 0.355422 -7.163907 0.000000 0.000000 0.000000 6.438660 -1.093891 -32.410501 17.878875 -28.001849 4.492200 21.471951 -18.364748 -8.718005 0.000000 0.000000 0.000000 -7.125000 0.000000 0.000000 -4.722601 39.295300 -0.665618 0.000000 0.000000 0.000000 -2.082318 0.533313 34.556368 -20.128299 -30.796616 -5.596904 -20.332319 -1.534477 4.935382 0.000000 0.000000 0.000000 7.125000 0.000000 0.000000 5.271829 35.201782 1.273183
9.179840 16.393236 -5.186772 -434.970598 84.953545 -410.000935 0.000000 0.000000 0.000000 -16.563014 -8.204180 -57.478726 2.018370 8.904189 25.496270 0.071008 5.497455 5.714599 0.000890 0.190163 0.522524 0.000000 0.000000 0.000000 25.015663 16.725377 -26.481586 -5.205084 -13.611055 41.701270 -3.052403 -3.153040 -34.254880 -0.115516 2.187558 -6.024488 1.149180 -0.270967 27.188673 -0.830112 0.335686 5.844798 -1.726269 0.311378 -8.522853 0.478916 0.078508 6.998416 3.165083 1.109083 -19.439917 0.835349 0.375944 -7.109017 0.000000 0.000000 0.000000 6.420626 -0.998449 -32.431079 17.871126 -27.991751 4.488600 21.270359 -18.336641 -8.847170 0.000000 0.000000 0.000000 -7.125000 0.000000 0.000000 -4.913302 39.416911 -0.677914 0.000000 0.000000 0.000000 -2.070390 0.505902 34.684470 -20.118075 -30.784390 -5.591640 -20.292821 -1.518445 4.924335 0.000000 0.000000 0.000000 7.125000 0.000000 0.000000 5.303494 35.188180 1.282655
8.927282 16.371990 -5.138968 -434.789890 84.658589 -410.133865 0.000000 0.000000 0.000000 -16.283444 -7.868209 -58.042994 1.929620 8.717836 24.916669 0.148185 6.248355 7.580812 0.000811 0.179169 0.492281 0.000000 0.000000 0.000000 25.593253 17.001889 -26.720072 -5.097196 -13.492394 41.240811 -3.183733 -3.469459 -35.082036 -0.033894 1.183946 -3.255187 1.219060 -0.227086 27.154888 -0.789010 0.416362 5.882550 -1.746893 0.349718 -8.460404 0.479781 0.112369 6.993174 3.192066 1.155129 -19.335856 0.839955 0.395738 -7.075249 0.000000 0.000000 0.000000 6.419586 -0.903630 -32.479920 17.843580 -27.956430 4.475709 21.106240 -18.355565 -8.948558 0.000000 0.000000 0.000000 -7.125000 0.000000 0.000000 -5.068507 39.511796 -0.687548 0.000000 0.000000 0.000000 -2.040308 0.475485 34.736502 -20.146250 -30.818140 -5.606061 -20.304386 -1.539212 4.962257 0.000000 0.000000 0.000000 7.125000 0.000000 0.000000 5.297536 35.228943 1.275929
